<?xml version="1.0" encoding="UTF-8" standalone="no"?>
<svg
   xmlns:dc="http://purl.org/dc/elements/1.1/"
   xmlns:cc="http://creativecommons.org/ns#"
   xmlns:rdf="http://www.w3.org/1999/02/22-rdf-syntax-ns#"
   xmlns:svg="http://www.w3.org/2000/svg"
   xmlns="http://www.w3.org/2000/svg"
   xmlns:sodipodi="http://sodipodi.sourceforge.net/DTD/sodipodi-0.dtd"
   xmlns:inkscape="http://www.inkscape.org/namespaces/inkscape"
   width="143"
   height="46"
   viewBox="0 0 143 46"
   fill="none"
   version="1.1"
   id="svg21"
   sodipodi:docname="hive.svg"
   inkscape:export-filename="/home/jtacquaviva/CONFERENCE/PER3S/per3s.github.io/images/hive.png"
   inkscape:export-xdpi="299"
   inkscape:export-ydpi="299"
   inkscape:version="0.92.5 (2060ec1f9f, 2020-04-08)">
  <metadata
     id="metadata25">
    <rdf:RDF>
      <cc:Work
         rdf:about="">
        <dc:format>image/svg+xml</dc:format>
        <dc:type
           rdf:resource="http://purl.org/dc/dcmitype/StillImage" />
      </cc:Work>
    </rdf:RDF>
  </metadata>
  <sodipodi:namedview
     pagecolor="#ffffff"
     bordercolor="#666666"
     borderopacity="1"
     objecttolerance="10"
     gridtolerance="10"
     guidetolerance="10"
     inkscape:pageopacity="0"
     inkscape:pageshadow="2"
     inkscape:window-width="1848"
     inkscape:window-height="1016"
     id="namedview23"
     showgrid="false"
     showguides="false"
     inkscape:zoom="2.5804196"
     inkscape:cx="71.5"
     inkscape:cy="23"
     inkscape:window-x="72"
     inkscape:window-y="27"
     inkscape:window-maximized="1"
     inkscape:current-layer="svg21" />
  <rect
     style="opacity:1;vector-effect:none;fill:#000564;fill-opacity:1;fill-rule:evenodd;stroke:none;stroke-width:3.35228324;stroke-linecap:square;stroke-linejoin:round;stroke-miterlimit:4;stroke-dasharray:none;stroke-dashoffset:0;stroke-opacity:1;filter:url(#filter858)"
     id="rect832"
     width="152.30081"
     height="52.317074"
     x="-4.6504064"
     y="-2.4417343"
     transform="matrix(1.0702705,0,0,1.1876816,-3.7536644,-3.5824068)" />
  <g
     clip-path="url(#clip0_2413_1059)"
     id="g14">
    <path
       d="M56.7185 39.5888H51.978L51.978 5.35535L56.7185 5.35535V23.2638H54.5637C54.7261 21.848 55.2787 20.5052 56.1599 19.3852C57.0998 18.181 58.315 17.2199 59.7032 16.5824C61.2105 15.8866 62.8539 15.5355 64.5139 15.5545C66.8123 15.5545 68.7681 16.0408 70.3812 17.0134C71.985 17.9804 73.2607 19.4074 74.0427 21.109C74.9144 23.0659 75.3396 25.1922 75.2877 27.3339V39.592L70.5568 39.592V27.8127C70.5726 26.488 70.3117 25.1745 69.7907 23.9565C69.306 22.8245 68.5198 21.8472 67.5178 21.1314C66.4277 20.3823 65.1273 19.9999 63.8052 20.0396C62.5059 20.0195 61.2274 20.3681 60.1182 21.0452C59.0264 21.7255 58.1541 22.7064 57.6059 23.8703C56.997 25.1484 56.6932 26.5504 56.7185 27.9659L56.7185 39.5888Z"
       fill="white"
       id="path2" />
    <path
       d="M85.3531 11.4822C84.8152 11.4845 84.2863 11.3434 83.8209 11.0736C83.3451 10.8073 82.9486 10.4196 82.6717 9.94994C82.3895 9.47114 82.2407 8.92553 82.2407 8.36978C82.2407 7.81404 82.3895 7.26843 82.6717 6.78963C82.953 6.31677 83.348 5.92173 83.8209 5.64043C84.2821 5.35816 84.8124 5.209 85.3531 5.20947C85.9028 5.20233 86.4431 5.35181 86.911 5.64043C87.6092 6.08307 88.1121 6.77566 88.3168 7.57665C88.5215 8.37764 88.4125 9.22656 88.0123 9.94994C87.7534 10.4171 87.3728 10.8054 86.911 11.0736C86.4387 11.3494 85.9 11.4907 85.3531 11.4822ZM83.0069 16.1269H87.7473V39.5898H83.0069V16.1269Z"
       fill="white"
       id="path4" />
    <path
       d="M100.095 36.5251L92.5298 16.1267H97.6054L104.501 35.2322C104.498 35.2956 104.513 35.3585 104.542 35.4145C104.572 35.4706 104.616 35.5178 104.67 35.5514C104.773 35.6291 104.898 35.6716 105.027 35.6727C105.165 35.6791 105.301 35.6361 105.41 35.5514C105.509 35.4701 105.577 35.3574 105.602 35.2322L112.497 16.1267H117.525L109.911 36.5251C109.555 37.6095 108.889 38.566 107.996 39.2768C107.138 39.9091 106.093 40.2382 105.027 40.2121C103.963 40.2283 102.922 39.9002 102.059 39.2768C101.141 38.5788 100.457 37.6195 100.095 36.5251Z"
       fill="white"
       id="path6" />
    <path
       d="M132.039 40.1139C129.807 40.155 127.605 39.6043 125.655 38.5178C123.795 37.4792 122.251 35.957 121.186 34.1125C120.081 32.1686 119.519 29.9636 119.558 27.728C119.535 25.5852 120.045 23.4704 121.042 21.5734C121.997 19.7407 123.431 18.2015 125.192 17.1202C127.07 15.9948 129.228 15.4227 131.417 15.4699C133.779 15.4699 135.815 15.9881 137.523 17.0245C139.208 18.0394 140.583 19.4968 141.498 21.2382C142.452 23.0624 142.936 25.0952 142.909 27.1534V29.0688L123.277 29.0688L124.138 27.1534C124.018 28.6833 124.299 30.2181 124.952 31.6066C125.581 32.9268 126.579 34.0365 127.826 34.8013C129.072 35.5661 130.513 35.9533 131.975 35.9161C133.368 35.9347 134.742 35.6055 135.975 34.9584C137.188 34.3038 138.179 33.3039 138.823 32.0854L142.462 33.9529C141.526 35.872 140.043 37.4714 138.2 38.5497C136.323 39.6108 134.196 40.1508 132.039 40.1139ZM124.378 25.9883L138.216 25.9883C138.176 24.8215 137.839 23.6842 137.236 22.6843C136.66 21.7402 135.831 20.977 134.842 20.4817C133.777 19.9575 132.603 19.6949 131.417 19.7155C130.21 19.6913 129.017 19.9712 127.947 20.5295C126.964 21.0481 126.138 21.8195 125.553 22.7641C124.951 23.7502 124.551 24.8462 124.378 25.9883Z"
       fill="white"
       id="path8" />
    <path
       d="M39.3041 32.2474L39.3041 13.7516C39.3038 13.353 39.1986 12.9614 38.9991 12.6163C38.7997 12.2711 38.5129 11.9845 38.1677 11.7852L22.1491 2.52771C21.804 2.32851 21.4126 2.22363 21.0142 2.22363C20.6158 2.22363 20.2244 2.32851 19.8794 2.52771L3.86397 11.7852C3.5183 11.984 3.23121 12.2705 3.03167 12.6158C2.83214 12.961 2.72723 13.3528 2.72754 13.7516L2.72754 32.2474C2.72723 32.6462 2.83214 33.038 3.03167 33.3832C3.23121 33.7285 3.5183 34.015 3.86397 34.2138L19.8794 43.4713C20.2244 43.6705 20.6158 43.7753 21.0142 43.7753C21.4126 43.7753 21.804 43.6705 22.1491 43.4713L38.1677 34.2138C38.5129 34.0145 38.7997 33.7279 38.9991 33.3827C39.1986 33.0376 39.3038 32.646 39.3041 32.2474Z"
       stroke="#E1FF01"
       stroke-width="4.46912"
       stroke-miterlimit="10"
       id="path10" />
    <path
       d="M39.3041 27.1194L22.1491 17.2235C21.804 17.0243 21.4126 16.9194 21.0142 16.9194C20.6158 16.9194 20.2244 17.0243 19.8794 17.2235L2.72754 27.1194"
       stroke="#E1FF01"
       stroke-width="4.46912"
       stroke-miterlimit="10"
       id="path12" />
  </g>
  <defs
     id="defs19">
    <clipPath
       id="clip0_2413_1059">
      <rect
         width="142.463"
         height="46"
         fill="white"
         transform="translate(0.493164)"
         id="rect16" />
    </clipPath>
    <filter
       inkscape:collect="always"
       style="color-interpolation-filters:sRGB"
       id="filter858"
       x="-0.056427481"
       width="1.112855"
       y="-0.16426666"
       height="1.3285333">
      <feGaussianBlur
         inkscape:collect="always"
         stdDeviation="3.580813"
         id="feGaussianBlur860" />
    </filter>
  </defs>
</svg>
